<?xml version="1.0" encoding="UTF-8" standalone="no"?>
<svg
   xmlns:osb="http://www.openswatchbook.org/uri/2009/osb"
   xmlns:dc="http://purl.org/dc/elements/1.1/"
   xmlns:cc="http://creativecommons.org/ns#"
   xmlns:rdf="http://www.w3.org/1999/02/22-rdf-syntax-ns#"
   xmlns:svg="http://www.w3.org/2000/svg"
   xmlns="http://www.w3.org/2000/svg"
   width="210mm"
   height="297mm"
   viewBox="0 0 210 297"
   version="1.1"
   id="svg8">
  <defs
     id="defs2">
    <linearGradient
       id="linearGradient904"
       osb:paint="solid">
      <stop
         style="stop-color:#000000;stop-opacity:1;"
         offset="0"
         id="stop902" />
    </linearGradient>
  </defs>
  <metadata
     id="metadata5">
    <rdf:RDF>
      <cc:Work
         rdf:about="">
        <dc:format>image/svg+xml</dc:format>
        <dc:type
           rdf:resource="http://purl.org/dc/dcmitype/StillImage" />
        <dc:title></dc:title>
      </cc:Work>
    </rdf:RDF>
  </metadata>
  <g
     id="g844"
     style="stroke-width:1.000125;stroke-miterlimit:4;stroke-dasharray:none;stroke:#ffffff;stroke-opacity:1;fill:none;fill-opacity:1;fill-rule:nonzero">
    <path
       style="fill:none;stroke-width:1.000125;fill-opacity:1;stroke:#ffffff;stroke-opacity:1;stroke-miterlimit:4;stroke-dasharray:none;stroke-linejoin:round;stroke-linecap:round;paint-order:markers stroke fill;fill-rule:nonzero"
       d="m 99.918098,157.98897 c -3.086199,-0.49429 -5.561939,-2.04123 -6.511986,-4.06896 -0.360647,-0.76974 -0.409343,-1.05364 -0.408007,-2.37873 0.0014,-1.33331 0.04849,-1.60063 0.413953,-2.34712 0.552868,-1.12929 1.921714,-2.41298 3.25377,-3.05135 0.580907,-0.27839 1.200736,-0.54397 1.377396,-0.59016 0.300244,-0.0785 0.314444,-0.14708 0.217654,-1.05089 -0.134377,-1.25479 0.11075,-2.44933 0.787287,-3.83655 0.293892,-0.60262 0.50829,-1.1182 0.476439,-1.14572 -0.03185,-0.0275 -0.464171,-0.20003 -0.960714,-0.38335 -1.463966,-0.54046 -3.22445,-1.51655 -4.537438,-2.51574 l -1.227151,-0.93387 -1.782201,0.75594 c -6.554576,2.78021 -13.781279,2.74231 -20.452781,-0.10727 -8.618094,-3.68101 -15.608589,-11.58251 -17.29768,-19.55194 -0.771865,-3.64179 0.140375,-8.81323 2.335734,-13.24115 0.927378,-1.87047 2.466615,-4.076474 3.814468,-5.466828 3.785235,-3.904594 9.20455,-6.673411 16.690277,-8.52734 0.847977,-0.210011 1.68236,-0.441308 1.854187,-0.513991 0.171826,-0.07269 0.596555,-0.61044 0.943842,-1.195011 1.348995,-2.270694 3.64099,-4.744329 5.910506,-6.378913 1.639799,-1.181039 4.22413,-2.423566 6.091234,-2.928619 1.357773,-0.367278 1.731164,-0.402762 4.271482,-0.405923 2.142926,-0.0027 3.019225,0.05604 3.807117,0.255035 l 1.023464,0.258499 1.37823,-0.989637 c 2.81458,-2.021011 5.35222,-3.233477 8.3605,-3.994581 7.19762,-1.821017 14.65324,-0.02153 21.72917,5.244552 l 1.51037,1.124053 1.61424,-0.248582 c 13.39552,-2.062819 22.4194,2.931459 25.2136,13.954492 0.69715,2.750256 0.84196,4.340752 0.78956,8.672534 l -0.0481,3.97563 1.42944,0.62408 c 3.075,1.34251 4.67748,2.36329 6.58522,4.1948 2.04032,1.95879 3.45559,4.35956 4.18053,7.09158 0.37631,1.41817 0.45406,4.40567 0.15576,5.98483 -1.41838,7.5086 -7.60916,13.34696 -15.57481,14.6882 l -1.58458,0.26681 -0.64666,0.89038 c -2.50954,3.4554 -5.96332,5.44116 -10.72017,6.16359 -1.86983,0.28397 -5.54856,0.27809 -7.77899,-0.0124 -2.07936,-0.27085 -4.63614,-0.82295 -6.57002,-1.4187 -0.75617,-0.23295 -1.41551,-0.39938 -1.4652,-0.36984 -0.0497,0.0295 -0.13286,0.55667 -0.18483,1.17142 -0.10361,1.22571 -0.56759,2.6623 -1.22746,3.80052 -0.64676,1.11559 -2.39547,2.75702 -3.61326,3.39157 -1.73197,0.90249 -2.45712,1.06858 -4.81496,1.10287 -1.94838,0.0283 -2.19747,0.0653 -3.3175,0.49245 -1.443,0.55033 -3.36107,0.85877 -4.62666,0.74401 l -0.91712,-0.0832 -0.88258,0.73746 c -0.99102,0.82808 -2.30431,1.50101 -3.64776,1.86912 -0.89712,0.24582 -4.4785,0.43221 -5.416832,0.28193 z m 3.015922,-2.81632 c 0.4174,-0.13149 1.04372,-0.48286 1.39183,-0.78082 0.53339,-0.45657 0.63291,-0.62991 0.63291,-1.10239 0,-0.73934 -0.68082,-1.4083 -1.88911,-1.85621 -0.74105,-0.2747 -1.21727,-0.33261 -2.77538,-0.33748 -2.207968,-0.007 -3.253585,0.261 -4.208321,1.07822 -0.511977,0.43823 -0.606645,0.60892 -0.606645,1.09382 0,0.47162 0.09735,0.66003 0.543352,1.05163 0.596878,0.52406 0.962153,0.69892 2.089831,1.00041 0.97854,0.26162 3.796973,0.17558 4.821533,-0.14718 z m 9.17195,-2.9523 c 0.49655,-0.17136 1.26706,-0.55311 1.71224,-0.84834 l 0.80944,-0.53678 0.84571,0.27617 c 1.27807,0.41735 2.88539,0.36712 3.94835,-0.12339 1.79696,-0.82921 2.99129,-2.51227 2.99129,-4.21533 0,-1.11379 -0.25404,-1.72425 -0.99215,-2.3841 -0.32063,-0.28663 -0.85488,-0.82443 -1.18723,-1.19509 -1.17111,-1.30616 -1.92954,-1.95976 -2.72646,-2.34966 -1.59114,-0.77847 -3.47771,-0.71551 -5.29663,0.17678 l -1.09918,0.53921 -1.37198,-0.26514 c -1.15964,-0.2241 -1.5717,-0.23968 -2.6625,-0.10062 -1.71951,0.21919 -3.13355,0.70436 -4.2679,1.46434 -2.43081,1.62857 -2.67014,3.52175 -0.63907,5.05522 0.56956,0.43002 0.98096,0.89502 1.23446,1.39529 0.76936,1.51824 2.67827,2.90449 4.60328,3.34288 1.19939,0.27315 2.91733,0.17613 4.09833,-0.23144 z m 30.58744,-8.56509 c 4.20844,-0.81581 6.7951,-2.7976 8.28949,-6.35106 l 0.29228,-0.69499 2.08273,-0.0773 c 2.39263,-0.0888 3.98122,-0.47969 5.94931,-1.46406 1.49477,-0.74763 2.31406,-1.31759 3.53747,-2.46092 1.9527,-1.8249 3.3674,-4.14195 3.95713,-6.48117 0.36571,-1.45059 0.39696,-3.79669 0.0691,-5.18752 -0.49006,-2.07897 -2.05754,-4.38453 -4.05738,-5.96787 -1.75819,-1.39204 -5.04959,-2.86655 -7.87347,-3.52725 -0.44083,-0.10313 -0.83334,-0.2705 -0.87226,-0.37192 -0.0389,-0.10142 0.0684,-1.126 0.2385,-2.27685 1.64349,-11.119752 -1.32231,-19.192906 -8.13246,-22.137219 -3.69693,-1.598334 -8.63091,-1.813295 -14.50133,-0.631788 l -1.56998,0.315982 -1.08306,-0.91166 c -8.15258,-6.862448 -16.85094,-8.329429 -24.51213,-4.133981 -1.41148,0.772958 -2.7781,1.774198 -4.01783,2.943605 l -1.083708,1.022242 -0.791544,-0.311998 c -1.060037,-0.417827 -2.971843,-0.854637 -4.263481,-0.974121 -2.032408,-0.188009 -5.209186,0.531607 -7.144071,1.618302 -3.070991,1.724771 -6.172229,5.107447 -7.094914,7.73878 -0.16983,0.484324 -0.329129,0.901513 -0.353998,0.927088 -0.02487,0.02557 -1.592916,0.442894 -3.48455,0.927379 -1.891633,0.484484 -4.082583,1.095843 -4.868776,1.358575 -5.945406,1.986849 -9.983677,4.769754 -12.579392,8.668874 -2.640655,3.96663 -3.873369,9.45187 -2.932301,13.04793 0.628779,2.40273 1.807119,4.78736 3.515567,7.11452 1.111401,1.51388 4.478915,4.79178 6.128234,5.96513 1.629573,1.15931 5.073916,2.91968 6.828522,3.48999 6.12647,1.99132 12.402056,1.30568 17.965675,-1.96282 l 1.612522,-0.94732 0.673206,0.78164 c 2.09183,2.42877 4.004299,3.67264 6.957897,4.5254 2.011032,0.58062 3.729002,0.749 6.628352,0.64966 3.66227,-0.12548 7.08762,-0.87207 9.87417,-2.15217 1.28456,-0.5901 1.46752,-0.61581 1.59198,-0.22365 0.0501,0.15797 0.53166,0.72771 1.07004,1.2661 2.92551,2.9255 9.53451,5.83601 15.41052,6.78657 2.0867,0.33756 2.11959,0.34012 4.69677,0.36469 1.7848,0.017 2.72804,-0.0479 3.84716,-0.26486 z"
       id="path842" />
  </g>
</svg>
